<svg xmlns="http://www.w3.org/2000/svg" width="64" height="64" viewBox="0 0 64 64">
  <defs>
    <linearGradient id="grad1" x1="0%" y1="0%" x2="100%" y2="100%">
      <stop offset="0%" style="stop-color:#22d3ee;stop-opacity:1" /> <!-- cyan-400 -->
      <stop offset="100%" style="stop-color:#4f46e5;stop-opacity:1" /> <!-- indigo-600 -->
    </linearGradient>
  </defs>
  <rect width="64" height="64" rx="16" fill="url(#grad1)" />
  
  <g transform="translate(16, 16) scale(1.33)" fill="none" stroke="#ffffff" stroke-width="2" stroke-linecap="round" stroke-linejoin="round">
    <rect width="5" height="5" x="3" y="3" rx="1"/>
    <rect width="5" height="5" x="16" y="3" rx="1"/>
    <rect width="5" height="5" x="3" y="16" rx="1"/>
    <path d="M21 16h-3a2 2 0 0 0-2 2v3"/>
    <path d="M21 21v.01"/>
    <path d="M12 7v3a2 2 0 0 1-2 2H7"/>
    <path d="M3 12h.01"/>
    <path d="M12 3h.01"/>
    <path d="M12 16v.01"/>
    <path d="M16 12h1"/>
    <path d="M21 12v.01"/>
    <path d="M12 21v-1"/>
  </g>
</svg>